# xmcd CD database file
#
# Track frame offsets:
#	150
#	12467
#	22990
#	42490
#	59832
#	69572
#	98065
#	113817
#	132440
#	163807
#	193945
#	217900
#	248875
#	266990
#	301920
#	336832
#
# Disc length: 4650 seconds
#
# Revision: 0
# Processed by: cddbd v1.4PL0 Copyright (c) Steve Scherf et al.
# Submitted via: CDex 1.50beta9
#
DISCID=f3122810
DTITLE=Svensk Jazzhistoria - Vol 9 [CD3 of 4)
DYEAR=2003
DGENRE=Jazz
TTITLE0=The Imperial Band
TTITLE1=Cave Stompers
TTITLE2=Storyvillw Creepers
TTITLE3=Jazz Doctors
TTITLE4=Jazz Doctors
TTITLE5=Jan Johansson Trio
TTITLE6=Jojjen Björklunds Orkester
TTITLE7=Knud Jörgensens Kvartett
TTITLE8=Lars Sjösten - Eje Thelin
TTITLE9=Nils Lindberg
TTITLE10=Lars Lystedt Sextet
TTITLE11=Eje Thelins Kvintett
TTITLE12=Gugge Herdenius Orkester
TTITLE13=Gugge Herdenius Orkester
TTITLE14=Kurt Lindgreen - Harry Arnolds Radioband
TTITLE15=Bengt 'Frippe' Nordström and Co
EXTD=YEAR: 2003
EXTT0=
EXTT1=
EXTT2=
EXTT3=
EXTT4=
EXTT5=
EXTT6=
EXTT7=
EXTT8=
EXTT9=
EXTT10=
EXTT11=
EXTT12=
EXTT13=
EXTT14=
EXTT15=
PLAYORDER=
